<?xml version="1.0" encoding="UTF-8" standalone="no"?>
<svg
   xmlns:dc="http://purl.org/dc/elements/1.1/"
   xmlns:cc="http://creativecommons.org/ns#"
   xmlns:rdf="http://www.w3.org/1999/02/22-rdf-syntax-ns#"
   xmlns:svg="http://www.w3.org/2000/svg"
   xmlns="http://www.w3.org/2000/svg"
   xmlns:sodipodi="http://sodipodi.sourceforge.net/DTD/sodipodi-0.dtd"
   xmlns:inkscape="http://www.inkscape.org/namespaces/inkscape"
   height="106.03125"
   viewBox="0 0 104 106.03125"
   width="104"
   version="1.1"
   id="svg21"
   sodipodi:docname="inode-directory-cropped.svg"
   inkscape:version="0.92.5 (2060ec1f9f, 2020-04-08)">
  <metadata
     id="metadata27">
    <rdf:RDF>
      <cc:Work
         rdf:about="">
        <dc:format>image/svg+xml</dc:format>
        <dc:type
           rdf:resource="http://purl.org/dc/dcmitype/StillImage" />
        <dc:title></dc:title>
      </cc:Work>
    </rdf:RDF>
  </metadata>
  <defs
     id="defs25" />
  <sodipodi:namedview
     pagecolor="#ffffff"
     bordercolor="#666666"
     borderopacity="1"
     objecttolerance="10"
     gridtolerance="10"
     guidetolerance="10"
     inkscape:pageopacity="0"
     inkscape:pageshadow="2"
     inkscape:window-width="1920"
     inkscape:window-height="1043"
     id="namedview23"
     showgrid="false"
     fit-margin-top="0"
     fit-margin-left="0"
     fit-margin-right="0"
     fit-margin-bottom="0"
     inkscape:zoom="6.3739014"
     inkscape:cx="52"
     inkscape:cy="54.03125"
     inkscape:window-x="1920"
     inkscape:window-y="0"
     inkscape:window-maximized="1"
     inkscape:current-layer="svg21" />
  <linearGradient
     id="a"
     gradientTransform="matrix(0.45451,0,0,0.455522,-1222.2921,604.17261)"
     gradientUnits="userSpaceOnUse"
     x1="2689.252"
     x2="2918.0698"
     y1="-1106.803"
     y2="-1106.803">
    <stop
       offset="0"
       stop-color="#62a0ea"
       id="stop2" />
    <stop
       offset="0.0576991"
       stop-color="#afd4ff"
       id="stop4" />
    <stop
       offset="0.122204"
       stop-color="#62a0ea"
       id="stop6" />
    <stop
       offset="0.873306"
       stop-color="#62a0ea"
       id="stop8" />
    <stop
       offset="0.955997"
       stop-color="#c0d5ea"
       id="stop10" />
    <stop
       offset="1"
       stop-color="#62a0ea"
       id="stop12" />
  </linearGradient>
  <path
     d="M 9.976562,0 C 4.449219,0 0,4.460938 0,10 v 86.03125 c 0,5.54297 4.449219,10 9.976562,10 H 94.01953 c 5.53125,0 9.98047,-4.45703 9.98047,-10 V 23.945312 c 0,-6.628906 -5.35937,-12 -11.97266,-12 H 46 c -2.453125,0 -4.695312,-1.386718 -5.796875,-3.582031 L 38.699219,5.371094 C 37.042969,2.078125 33.679688,0 30,0 Z m 0,0"
     id="path15"
     inkscape:connector-curvature="0"
     style="fill:#438de6" />
  <path
     d="M 53.976562,24 C 51.230469,24 48.75,25.101562 46.949219,26.890625 44.675781,29.144531 41.566406,32 38.316406,32 H 9.976562 C 4.449219,32 0,36.460938 0,42 v 54.03125 c 0,5.54297 4.449219,10 9.976562,10 H 94.01953 c 5.53125,0 9.98047,-4.45703 9.98047,-10 V 34 c 0,-5.539062 -4.44922,-10 -9.98047,-10 z m 0,0"
     id="path17"
     inkscape:connector-curvature="0"
     style="fill:url(#a)" />
  <path
     d="M 53.976562,20 C 51.230469,20 48.75,21.101562 46.949219,22.890625 44.675781,25.144531 41.566406,28 38.316406,28 H 9.976562 C 4.449219,28 0,32.460938 0,38 v 55.97656 c 0,5.53907 4.449219,10 9.976562,10 H 94.01953 c 5.53125,0 9.98047,-4.46093 9.98047,-10 V 30 c 0,-5.539062 -4.44922,-10 -9.98047,-10 z m 0,0"
     id="path19"
     inkscape:connector-curvature="0"
     style="fill:#a4caee" />
</svg>
