<?xml version="1.0" encoding="UTF-8" standalone="no"?>
<!-- Generator: Adobe Illustrator 27.5.0, SVG Export Plug-In . SVG Version: 6.00 Build 0)  -->

<svg
   xmlns:dc="http://purl.org/dc/elements/1.1/"
   xmlns:cc="http://creativecommons.org/ns#"
   xmlns:rdf="http://www.w3.org/1999/02/22-rdf-syntax-ns#"
   xmlns:svg="http://www.w3.org/2000/svg"
   xmlns="http://www.w3.org/2000/svg"
   xmlns:sodipodi="http://sodipodi.sourceforge.net/DTD/sodipodi-0.dtd"
   xmlns:inkscape="http://www.inkscape.org/namespaces/inkscape"
   version="1.1"
   x="0px"
   y="0px"
   viewBox="0 0 467.45004 332.88477"
   xml:space="preserve"
   id="svg2681"
   sodipodi:docname="factory.svg"
   width="467.45004"
   height="332.88477"
   inkscape:version="0.92.5 (2060ec1f9f, 2020-04-08)"><metadata
   id="metadata2687"><rdf:RDF><cc:Work
       rdf:about=""><dc:format>image/svg+xml</dc:format><dc:type
         rdf:resource="http://purl.org/dc/dcmitype/StillImage" /><dc:title></dc:title></cc:Work></rdf:RDF></metadata><defs
   id="defs2685">
	
	

		
		
		
		
		
		
		
		
		
		
		
		
		
		
		
		
		
		
		
		
		
		
		
		
		
		
		
		
		
		
		
		
		
		
		
		
		
		
		
		
		
	
			
				
		
			
		
			
		</defs><sodipodi:namedview
   pagecolor="#ffffff"
   bordercolor="#666666"
   borderopacity="1"
   objecttolerance="10"
   gridtolerance="10"
   guidetolerance="10"
   inkscape:pageopacity="0"
   inkscape:pageshadow="2"
   inkscape:window-width="1848"
   inkscape:window-height="1016"
   id="namedview2683"
   showgrid="false"
   fit-margin-top="50"
   fit-margin-bottom="50"
   fit-margin-left="50"
   fit-margin-right="50"
   inkscape:zoom="1.9504348"
   inkscape:cx="284.03703"
   inkscape:cy="202.55807"
   inkscape:window-x="72"
   inkscape:window-y="27"
   inkscape:window-maximized="1"
   inkscape:current-layer="svg2681" />

<g
   id="Background_Simple"
   style="display:none"
   transform="translate(7.522055,-165.67122)">
	<g
   style="display:inline"
   id="g913">
		<path
   style="fill:#f5f5f5"
   d="m 546.915,92.941 -2.169,-3.574 c -18.285,-30.132 -51.345,-48.296 -86.2,-46.092 -4.48,0.283 -8.942,0.89 -13.343,1.832 -31.691,6.784 -59.266,30.749 -70.696,61.441 -6.722,18.051 -8.6,38.834 -21.356,53.161 -16.602,18.647 -44.787,19.232 -69.568,18.46 -24.78,-0.773 -52.985,-0.114 -69.505,18.607 -10.347,11.724 -13.635,28.397 -12.801,44.098 2.209,41.569 31.175,78.739 68.013,97.214 36.838,18.475 80.21,20.13 120.527,12.003 56.479,-11.385 110.19,-42.651 142.475,-90.943 32.283,-48.292 40.454,-114.084 14.623,-166.207 z"
   id="path911"
   inkscape:connector-curvature="0" />
	</g>
	<g
   style="display:inline"
   id="g917">
		<circle
   style="fill:#f5f5f5"
   cx="199.302"
   cy="99.106003"
   r="25.698999"
   id="circle915" />
	</g>
	<g
   style="display:inline"
   id="g921">
		<circle
   style="fill:#f5f5f5"
   cx="639.99103"
   cy="233.80099"
   r="25.698999"
   id="circle919" />
	</g>
</g>

<g
   id="g1655"
   transform="translate(7.522055,-165.67122)">
			<polygon
   style="fill:#ff725e"
   points="42.908,448.556 42.908,261.357 130.513,218.938 130.513,262.279 223.652,218.938 223.652,263.202 409.928,263.202 409.928,448.556 "
   id="polygon1653" />
		</g><g
   id="g1659"
   transform="translate(7.522055,-165.67122)">
			<rect
   x="65.472"
   y="315.70999"
   style="fill:#ffffff"
   width="304.57199"
   height="50.223"
   id="rect1657" />
		</g><g
   id="g1665"
   transform="translate(7.522055,-165.67122)">
			<g
   id="g1663">
				<path
   style="fill:#ff725e"
   d="m 381.689,340.821 c 0,0.144 -71.087,0.26 -158.758,0.26 -87.701,0 -158.773,-0.117 -158.773,-0.26 0,-0.144 71.072,-0.26 158.773,-0.26 87.671,-10e-4 158.758,0.116 158.758,0.26 z"
   id="path1661"
   inkscape:connector-curvature="0" />
			</g>
		</g><g
   id="g1671"
   transform="translate(7.522055,-165.67122)">
			<g
   id="g1669">
				<path
   style="fill:#ff725e"
   d="m 83.716,365.154 c 0.019,0 0.038,0.225 0.056,0.659 0.013,0.493 0.03,1.124 0.051,1.91 h -0.214 c -0.09,-4.435 -0.153,-14.428 -0.153,-26.035 0.03,-7.869 0.057,-14.988 0.076,-20.229 0.034,-2.535 0.062,-4.612 0.083,-6.13 0.02,-0.677 0.036,-1.228 0.049,-1.667 0.017,-0.381 0.035,-0.581 0.052,-0.581 0.017,0 0.036,0.2 0.052,0.581 0.013,0.438 0.029,0.99 0.049,1.667 0.021,1.518 0.049,3.595 0.083,6.13 0.02,5.24 0.047,12.36 0.076,20.229 0,11.607 -0.063,21.601 -0.153,26.035 h -0.214 c 0.021,-0.785 0.038,-1.416 0.051,-1.91 0.018,-0.434 0.037,-0.659 0.056,-0.659 z"
   id="path1667"
   inkscape:connector-curvature="0" />
			</g>
		</g><g
   id="g1677"
   transform="translate(7.522055,-165.67122)">
			<g
   id="g1675">
				<path
   style="fill:#ff725e"
   d="m 105.741,364.713 c 0.019,0 0.038,0.225 0.056,0.659 0.013,0.493 0.03,1.124 0.051,1.91 h -0.214 c -0.09,-4.435 -0.153,-14.428 -0.153,-26.035 0.03,-7.869 0.057,-14.989 0.076,-20.229 0.034,-2.535 0.062,-4.612 0.083,-6.13 0.02,-0.677 0.036,-1.228 0.049,-1.667 0.017,-0.381 0.035,-0.581 0.053,-0.581 0.018,0 0.035,0.2 0.052,0.581 0.013,0.438 0.029,0.99 0.049,1.667 0.021,1.519 0.049,3.595 0.083,6.13 0.02,5.24 0.047,12.36 0.076,20.229 0,11.607 -0.063,21.601 -0.153,26.035 h -0.214 c 0.021,-0.785 0.038,-1.416 0.051,-1.91 0.017,-0.434 0.036,-0.659 0.055,-0.659 z"
   id="path1673"
   inkscape:connector-curvature="0" />
			</g>
		</g><g
   id="g1683"
   transform="translate(7.522055,-165.67122)">
			<g
   id="g1681">
				<path
   style="fill:#ff725e"
   d="m 127.766,364.413 c 0.019,0 0.038,0.213 0.055,0.623 0.013,0.471 0.03,1.067 0.051,1.805 h -0.214 c -0.09,-4.191 -0.153,-13.637 -0.153,-24.607 0.03,-7.434 0.057,-14.159 0.076,-19.119 0.034,-2.39 0.062,-4.351 0.083,-5.794 0.02,-0.636 0.036,-1.157 0.049,-1.575 0.017,-0.36 0.035,-0.549 0.053,-0.549 0.018,0 0.035,0.189 0.052,0.549 0.013,0.418 0.029,0.939 0.049,1.575 0.021,1.442 0.049,3.403 0.083,5.794 0.02,4.96 0.047,11.686 0.076,19.119 0,10.97 -0.063,20.416 -0.153,24.607 h -0.214 c 0.021,-0.738 0.038,-1.334 0.051,-1.805 0.019,-0.41 0.037,-0.623 0.056,-0.623 z"
   id="path1679"
   inkscape:connector-curvature="0" />
			</g>
		</g><g
   id="g1689"
   transform="translate(7.522055,-165.67122)">
			<g
   id="g1687">
				<path
   style="fill:#ff725e"
   d="m 149.792,363.831 c 0.019,0 0.038,0.225 0.056,0.659 0.013,0.493 0.03,1.124 0.051,1.909 h -0.214 c -0.09,-4.435 -0.153,-14.428 -0.153,-26.035 0.03,-7.869 0.057,-14.989 0.076,-20.229 0.034,-2.535 0.062,-4.612 0.083,-6.13 0.02,-0.677 0.036,-1.228 0.049,-1.667 0.017,-0.381 0.035,-0.581 0.053,-0.581 0.018,0 0.035,0.2 0.052,0.581 0.013,0.438 0.029,0.99 0.049,1.667 0.02,1.518 0.048,3.595 0.083,6.13 0.02,5.24 0.047,12.36 0.076,20.229 0,11.607 -0.063,21.601 -0.153,26.035 h -0.214 c 0.021,-0.785 0.038,-1.416 0.051,-1.909 0.017,-0.434 0.036,-0.659 0.055,-0.659 z"
   id="path1685"
   inkscape:connector-curvature="0" />
			</g>
		</g><g
   id="g1695"
   transform="translate(7.522055,-165.67122)">
			<g
   id="g1693">
				<path
   style="fill:#ff725e"
   d="m 171.817,363.573 c 0.019,0 0.038,0.209 0.056,0.612 0.013,0.464 0.03,1.05 0.051,1.774 h -0.214 c -0.09,-4.12 -0.153,-13.404 -0.153,-24.187 0.03,-7.306 0.057,-13.915 0.076,-18.793 0.034,-2.348 0.062,-4.275 0.083,-5.695 0.02,-0.624 0.036,-1.136 0.049,-1.548 0.017,-0.354 0.035,-0.54 0.052,-0.54 0.018,0 0.036,0.186 0.053,0.54 0.013,0.413 0.029,0.924 0.049,1.548 0.021,1.42 0.049,3.347 0.083,5.695 0.02,4.878 0.047,11.487 0.076,18.793 0,10.783 -0.063,20.067 -0.153,24.187 h -0.214 c 0.021,-0.724 0.038,-1.31 0.051,-1.774 0.017,-0.403 0.036,-0.612 0.055,-0.612 z"
   id="path1691"
   inkscape:connector-curvature="0" />
			</g>
		</g><g
   id="g1701"
   transform="translate(7.522055,-165.67122)">
			<g
   id="g1699">
				<path
   style="fill:#ff725e"
   d="m 193.842,365.056 c 0.019,0 0.038,0.234 0.055,0.684 0.013,0.509 0.03,1.164 0.051,1.982 h -0.214 c -0.09,-4.604 -0.153,-14.98 -0.153,-27.03 0.03,-8.172 0.057,-15.566 0.076,-21.001 0.034,-2.636 0.062,-4.793 0.083,-6.364 0.02,-0.705 0.036,-1.278 0.049,-1.73 0.017,-0.395 0.035,-0.603 0.053,-0.603 0.018,0 0.035,0.208 0.052,0.603 0.013,0.452 0.029,1.025 0.049,1.73 0.02,1.572 0.048,3.729 0.083,6.364 0.02,5.436 0.047,12.83 0.076,21.001 0,12.05 -0.063,22.426 -0.153,27.03 h -0.214 c 0.021,-0.818 0.038,-1.474 0.051,-1.982 0.018,-0.45 0.037,-0.684 0.056,-0.684 z"
   id="path1697"
   inkscape:connector-curvature="0" />
			</g>
		</g><g
   id="g1707"
   transform="translate(7.522055,-165.67122)">
			<g
   id="g1705">
				<path
   style="fill:#ff725e"
   d="m 215.867,362.911 c 0.019,0 0.038,0.206 0.056,0.604 0.014,0.459 0.03,1.036 0.051,1.75 h -0.214 c -0.09,-4.064 -0.153,-13.221 -0.153,-23.856 0,-7.239 0.029,-13.793 0.076,-18.536 0.034,-2.314 0.062,-4.215 0.083,-5.617 0.02,-0.615 0.036,-1.119 0.049,-1.527 0.017,-0.349 0.035,-0.533 0.053,-0.533 0.018,0 0.035,0.183 0.052,0.533 0.013,0.408 0.029,0.913 0.049,1.527 0.021,1.402 0.049,3.303 0.083,5.617 0.047,4.743 0.076,11.296 0.076,18.536 0,10.636 -0.063,19.793 -0.153,23.856 h -0.214 c 0.021,-0.713 0.038,-1.291 0.051,-1.75 0.018,-0.397 0.036,-0.604 0.055,-0.604 z"
   id="path1703"
   inkscape:connector-curvature="0" />
			</g>
		</g><g
   id="g1713"
   transform="translate(7.522055,-165.67122)">
			<g
   id="g1711">
				<path
   style="fill:#ff725e"
   d="m 237.893,364.841 c 0.019,0 0.038,0.212 0.056,0.622 0.013,0.47 0.03,1.065 0.052,1.802 h -0.214 c -0.09,-4.184 -0.153,-13.613 -0.153,-24.565 0.03,-7.421 0.056,-14.134 0.076,-19.086 0.034,-2.386 0.062,-4.344 0.083,-5.784 0.02,-0.635 0.036,-1.155 0.049,-1.572 0.017,-0.36 0.035,-0.548 0.052,-0.548 0.018,0 0.036,0.189 0.053,0.548 0.013,0.418 0.029,0.938 0.049,1.572 0.021,1.44 0.049,3.398 0.083,5.784 0.02,4.952 0.047,11.665 0.076,19.086 0,10.951 -0.063,20.38 -0.153,24.565 h -0.214 c 0.021,-0.737 0.038,-1.332 0.051,-1.802 0.016,-0.409 0.034,-0.622 0.054,-0.622 z"
   id="path1709"
   inkscape:connector-curvature="0" />
			</g>
		</g><g
   id="g1719"
   transform="translate(7.522055,-165.67122)">
			<g
   id="g1717">
				<path
   style="fill:#ff725e"
   d="m 259.918,364.402 c 0.019,0 0.038,0.211 0.056,0.616 0.013,0.467 0.03,1.056 0.051,1.786 h -0.214 c -0.09,-4.147 -0.153,-13.492 -0.153,-24.345 0.03,-7.354 0.056,-14.007 0.076,-18.915 0.034,-2.364 0.062,-4.304 0.083,-5.732 0.02,-0.629 0.036,-1.144 0.049,-1.559 0.017,-0.356 0.035,-0.543 0.052,-0.543 0.018,0 0.036,0.187 0.053,0.543 0.013,0.415 0.029,0.93 0.049,1.559 0.021,1.428 0.049,3.368 0.083,5.732 0.02,4.909 0.047,11.562 0.076,18.915 0,10.853 -0.063,20.198 -0.153,24.345 h -0.214 c 0.021,-0.729 0.038,-1.319 0.051,-1.786 0.017,-0.406 0.036,-0.616 0.055,-0.616 z"
   id="path1715"
   inkscape:connector-curvature="0" />
			</g>
		</g><g
   id="g1725"
   transform="translate(7.522055,-165.67122)">
			<g
   id="g1723">
				<path
   style="fill:#ff725e"
   d="m 281.943,363.962 c 0.019,0 0.038,0.209 0.056,0.61 0.013,0.463 0.03,1.047 0.051,1.77 h -0.214 c -0.09,-4.109 -0.154,-13.37 -0.154,-24.125 0.03,-7.286 0.057,-13.879 0.076,-18.744 0.034,-2.342 0.062,-4.263 0.083,-5.68 0.02,-0.622 0.036,-1.133 0.049,-1.544 0.017,-0.353 0.035,-0.538 0.052,-0.538 0.018,0 0.036,0.185 0.052,0.538 0.013,0.412 0.029,0.922 0.049,1.544 0.021,1.417 0.049,3.339 0.083,5.68 0.02,4.865 0.047,11.458 0.076,18.744 0,10.755 -0.063,20.016 -0.153,24.125 h -0.214 c 0.021,-0.722 0.038,-1.306 0.051,-1.77 0.019,-0.401 0.038,-0.61 0.057,-0.61 z"
   id="path1721"
   inkscape:connector-curvature="0" />
			</g>
		</g><g
   id="g1731"
   transform="translate(7.522055,-165.67122)">
			<g
   id="g1729">
				<path
   style="fill:#ff725e"
   d="m 303.968,363.522 c 0.019,0 0.038,0.207 0.056,0.605 0.013,0.46 0.03,1.039 0.051,1.753 h -0.214 c -0.091,-4.072 -0.153,-13.248 -0.153,-23.905 0,-7.254 0.029,-13.821 0.076,-18.574 0.034,-2.319 0.062,-4.223 0.083,-5.629 0.02,-0.616 0.036,-1.121 0.049,-1.53 0.017,-0.35 0.034,-0.534 0.052,-0.534 0.018,0 0.035,0.184 0.052,0.534 0.013,0.409 0.029,0.914 0.049,1.53 0.021,1.405 0.049,3.309 0.083,5.629 0.047,4.753 0.076,11.32 0.076,18.574 0,10.657 -0.063,19.833 -0.153,23.905 h -0.214 c 0.021,-0.715 0.038,-1.293 0.051,-1.753 0.019,-0.398 0.037,-0.605 0.056,-0.605 z"
   id="path1727"
   inkscape:connector-curvature="0" />
			</g>
		</g><g
   id="g1737"
   transform="translate(7.522055,-165.67122)">
			<g
   id="g1735">
				<path
   style="fill:#ff725e"
   d="m 325.993,363.083 c 0.019,0 0.038,0.205 0.056,0.599 0.014,0.456 0.03,1.03 0.051,1.737 h -0.214 c -0.09,-4.034 -0.153,-13.126 -0.153,-23.685 0,-7.188 0.029,-13.694 0.076,-18.403 0.034,-2.297 0.062,-4.183 0.083,-5.577 0.02,-0.609 0.036,-1.11 0.049,-1.516 0.017,-0.347 0.034,-0.529 0.052,-0.529 0.018,0 0.036,0.182 0.052,0.529 0.013,0.406 0.029,0.907 0.049,1.516 0.021,1.393 0.049,3.28 0.083,5.577 0.047,4.709 0.076,11.215 0.076,18.403 0,10.559 -0.063,19.651 -0.153,23.685 h -0.214 c 0.021,-0.708 0.038,-1.281 0.051,-1.737 0.019,-0.394 0.037,-0.599 0.056,-0.599 z"
   id="path1733"
   inkscape:connector-curvature="0" />
			</g>
		</g><g
   id="g1743"
   transform="translate(7.522055,-165.67122)">
			<g
   id="g1741">
				<path
   style="fill:#ff725e"
   d="m 348.019,362.732 c 0.019,0 0.038,0.203 0.056,0.595 0.014,0.454 0.031,1.023 0.051,1.724 h -0.214 c -0.091,-4.004 -0.153,-13.029 -0.153,-23.51 0,-7.134 0.029,-13.592 0.076,-18.267 0.034,-2.279 0.062,-4.151 0.083,-5.535 0.02,-0.604 0.036,-1.102 0.049,-1.505 0.017,-0.344 0.035,-0.525 0.053,-0.525 0.018,0 0.035,0.181 0.052,0.525 0.013,0.403 0.029,0.901 0.049,1.505 0.021,1.384 0.049,3.256 0.083,5.535 0.047,4.674 0.076,11.132 0.076,18.267 0,10.481 -0.063,19.505 -0.153,23.51 h -0.214 c 0.021,-0.702 0.038,-1.271 0.051,-1.724 0.017,-0.392 0.036,-0.595 0.055,-0.595 z"
   id="path1739"
   inkscape:connector-curvature="0" />
			</g>
		</g><rect
   id="rect1769"
   height="1.9990404"
   width="102.20907"
   style="fill:#263238;stroke-width:1.00002027"
   transform="rotate(-25.988525)"
   y="107.11196"
   x="3.4092214" /><g
   id="g1775"
   transform="translate(7.522055,-165.67122)">
			
				<rect
   x="125.718"
   y="239.60899"
   transform="matrix(0.9066,-0.4221,0.4221,0.9066,-85.0046,97.2171)"
   style="fill:#263238"
   width="102.729"
   height="2"
   id="rect1773" />
		</g><g
   style="opacity:0.3"
   id="g1781"
   transform="translate(7.522055,-165.67122)">
			<g
   id="g1779">
				<path
   d="m 67.723,294.489 c -0.012,-0.013 -0.025,-0.259 -0.038,-0.715 -0.011,-0.503 -0.026,-1.158 -0.045,-1.974 -0.024,-1.746 -0.057,-4.173 -0.098,-7.159 l 0.181,0.181 c -6.322,0.02 -15.099,0.048 -24.813,0.079 -0.234,0.233 0.315,-0.317 0.259,-0.259 v 0.003 0.005 0.01 0.02 0.04 0.081 0.161 0.322 0.642 c 0,0.427 0,0.852 0,1.274 -10e-4,0.845 -10e-4,1.68 -0.002,2.504 -0.003,1.647 -0.005,3.247 -0.008,4.785 l -0.25,-0.25 c 7.119,0.047 13.273,0.088 17.715,0.117 2.17,0.029 3.919,0.052 5.188,0.069 0.573,0.013 1.037,0.023 1.405,0.032 0.322,0.011 0.496,0.021 0.506,0.032 0.01,0.01 -0.142,0.021 -0.446,0.031 -0.354,0.008 -0.801,0.019 -1.353,0.032 -1.255,0.017 -2.985,0.04 -5.131,0.069 -4.485,0.029 -10.698,0.07 -17.885,0.117 l -0.249,0.002 v -0.251 c -0.003,-1.538 -0.005,-3.139 -0.008,-4.785 -0.001,-0.824 -0.001,-1.659 -0.002,-2.504 0,-0.422 0,-0.847 0,-1.274 v -0.642 -0.322 -0.161 -0.081 -0.04 -0.02 -0.01 -0.005 -0.003 c -0.057,0.055 0.494,-0.494 0.262,-0.261 9.714,0.031 18.491,0.059 24.813,0.079 l 0.184,0.001 -0.002,0.181 c -0.041,3.031 -0.074,5.496 -0.098,7.268 -0.019,0.799 -0.034,1.441 -0.045,1.934 -0.015,0.436 -0.028,0.657 -0.04,0.645 z"
   id="path1777"
   inkscape:connector-curvature="0" />
			</g>
		</g><g
   style="opacity:0.3"
   id="g1787"
   transform="translate(7.522055,-165.67122)">
			<g
   id="g1785">
				<rect
   x="54.112"
   y="274.836"
   width="24.815001"
   height="9.8479996"
   id="rect1783" />
			</g>
		</g><g
   style="opacity:0.3"
   id="g1793"
   transform="translate(7.522055,-165.67122)">
			<g
   id="g1791">
				<path
   d="m 251.195,428.775 c -0.012,-0.013 -0.025,-0.259 -0.038,-0.715 -0.012,-0.503 -0.026,-1.158 -0.045,-1.974 -0.024,-1.746 -0.057,-4.174 -0.098,-7.159 l 0.181,0.181 c -6.323,0.02 -15.098,0.048 -24.813,0.079 -0.233,0.233 0.315,-0.317 0.259,-0.259 v 0.003 0.005 0.01 0.02 0.04 0.081 0.161 0.322 0.642 c 0,0.427 0,0.852 -0.001,1.274 -10e-4,0.845 -10e-4,1.68 -0.002,2.504 -0.003,1.647 -0.005,3.247 -0.008,4.785 l -0.25,-0.25 c 7.119,0.047 13.273,0.088 17.715,0.117 2.17,0.029 3.919,0.052 5.188,0.069 0.573,0.013 1.037,0.023 1.405,0.032 0.324,0.011 0.497,0.021 0.507,0.032 0.01,0.01 -0.142,0.021 -0.446,0.031 -0.354,0.008 -0.801,0.019 -1.352,0.032 -1.255,0.017 -2.985,0.04 -5.131,0.069 -4.485,0.029 -10.698,0.07 -17.885,0.117 l -0.249,0.002 v -0.251 c -0.003,-1.538 -0.005,-3.139 -0.008,-4.785 -0.001,-0.824 -0.001,-1.659 -0.002,-2.504 0,-0.422 0,-0.847 -0.001,-1.274 v -0.642 -0.322 -0.161 -0.081 -0.04 -0.02 -0.01 -0.005 -0.003 c -0.057,0.055 0.494,-0.494 0.262,-0.261 9.715,0.031 18.491,0.059 24.813,0.079 l 0.184,0.001 -0.002,0.181 c -0.041,3.031 -0.074,5.496 -0.098,7.268 -0.019,0.799 -0.034,1.441 -0.045,1.934 -0.015,0.436 -0.027,0.657 -0.04,0.645 z"
   id="path1789"
   inkscape:connector-curvature="0" />
			</g>
		</g><g
   style="opacity:0.3"
   id="g1799"
   transform="translate(7.522055,-165.67122)">
			<g
   id="g1797">
				<rect
   x="237.584"
   y="409.12201"
   width="24.815001"
   height="9.8479996"
   id="rect1795" />
			</g>
		</g><g
   style="opacity:0.3"
   id="g1805"
   transform="translate(7.522055,-165.67122)">
			<g
   id="g1803">
				<path
   d="m 101.252,398.353 c -0.012,-0.013 -0.025,-0.259 -0.038,-0.715 -0.011,-0.503 -0.026,-1.158 -0.045,-1.974 -0.024,-1.746 -0.057,-4.174 -0.098,-7.159 l 0.181,0.182 c -6.322,0.02 -15.098,0.048 -24.813,0.079 -0.233,0.233 0.315,-0.317 0.259,-0.26 v 0.003 0.005 0.01 0.02 0.04 0.081 0.161 0.322 0.642 c 0,0.427 0,0.852 -10e-4,1.274 -0.001,0.845 -0.001,1.68 -0.002,2.504 -0.003,1.647 -0.005,3.247 -0.008,4.785 l -0.249,-0.249 c 7.119,0.047 13.273,0.088 17.715,0.117 2.17,0.029 3.919,0.052 5.188,0.069 0.573,0.013 1.037,0.023 1.405,0.032 0.322,0.01 0.496,0.02 0.506,0.031 0.01,0.01 -0.142,0.021 -0.446,0.031 -0.354,0.008 -0.801,0.019 -1.353,0.032 -1.255,0.017 -2.985,0.04 -5.131,0.069 -4.485,0.029 -10.698,0.07 -17.885,0.117 l -0.249,0.002 v -0.251 c -0.003,-1.538 -0.005,-3.138 -0.008,-4.785 -0.001,-0.824 -0.001,-1.659 -0.002,-2.504 0,-0.422 0,-0.847 -10e-4,-1.274 v -0.642 -0.322 -0.161 -0.081 -0.04 -0.02 -0.01 -0.005 -0.003 c -0.057,0.055 0.494,-0.494 0.262,-0.261 9.715,0.031 18.491,0.059 24.813,0.079 l 0.184,10e-4 -0.002,0.181 c -0.041,3.031 -0.074,5.496 -0.098,7.268 -0.019,0.799 -0.034,1.441 -0.045,1.934 -0.014,0.436 -0.026,0.657 -0.039,0.645 z"
   id="path1801"
   inkscape:connector-curvature="0" />
			</g>
		</g><g
   style="opacity:0.3"
   id="g1811"
   transform="translate(7.522055,-165.67122)">
			<g
   id="g1809">
				<path
   d="m 205.87,278.085 c -0.012,-0.012 -0.025,-0.258 -0.038,-0.715 -0.011,-0.503 -0.026,-1.158 -0.045,-1.974 -0.024,-1.746 -0.057,-4.174 -0.098,-7.159 l 0.182,0.181 c -6.322,0.02 -15.098,0.048 -24.813,0.079 -0.233,0.233 0.315,-0.317 0.259,-0.259 v 0.003 0.005 0.01 0.02 0.04 0.081 0.161 0.322 0.642 c 0,0.427 0,0.852 -0.001,1.274 -0.001,0.845 -0.001,1.68 -0.002,2.504 -0.003,1.647 -0.005,3.247 -0.008,4.785 l -0.249,-0.25 c 7.119,0.047 13.273,0.088 17.715,0.118 2.17,0.029 3.919,0.052 5.188,0.069 0.573,0.013 1.037,0.023 1.405,0.032 0.322,0.011 0.495,0.021 0.505,0.031 0.01,0.01 -0.142,0.021 -0.446,0.031 -0.354,0.008 -0.801,0.019 -1.353,0.032 -1.255,0.017 -2.985,0.04 -5.131,0.069 -4.485,0.029 -10.698,0.07 -17.885,0.117 l -0.249,0.002 v -0.251 c -0.003,-1.538 -0.005,-3.138 -0.008,-4.785 -0.001,-0.824 -0.001,-1.659 -0.002,-2.504 0,-0.422 0,-0.847 -0.001,-1.274 v -0.642 -0.322 -0.161 -0.081 -0.04 -0.02 -0.01 -0.005 -0.003 c -0.057,0.055 0.494,-0.494 0.262,-0.261 9.715,0.031 18.491,0.059 24.813,0.079 l 0.184,0.001 -0.002,0.181 c -0.041,3.031 -0.074,5.496 -0.098,7.268 -0.019,0.799 -0.033,1.441 -0.045,1.934 -0.014,0.436 -0.026,0.658 -0.039,0.645 z"
   id="path1807"
   inkscape:connector-curvature="0" />
			</g>
		</g><g
   style="opacity:0.3"
   id="g1817"
   transform="translate(7.522055,-165.67122)">
			<g
   id="g1815">
				<path
   d="m 355.321,292.969 c -0.012,-0.012 -0.025,-0.258 -0.038,-0.715 -0.011,-0.503 -0.026,-1.158 -0.045,-1.974 -0.024,-1.746 -0.057,-4.174 -0.098,-7.159 l 0.181,0.181 c -6.323,0.02 -15.099,0.048 -24.813,0.079 -0.233,0.233 0.315,-0.317 0.259,-0.259 v 0.003 0.005 0.01 0.02 0.04 0.081 0.161 0.322 0.642 c 0,0.427 0,0.852 0,1.274 -10e-4,0.845 -10e-4,1.68 -0.002,2.504 -0.003,1.647 -0.005,3.247 -0.008,4.785 l -0.25,-0.25 c 7.119,0.047 13.273,0.088 17.715,0.118 2.17,0.029 3.919,0.052 5.188,0.069 0.573,0.013 1.037,0.023 1.405,0.032 0.323,0.011 0.496,0.021 0.506,0.031 0.01,0.01 -0.142,0.021 -0.446,0.031 -0.354,0.008 -0.801,0.019 -1.353,0.032 -1.255,0.017 -2.985,0.04 -5.131,0.069 -4.485,0.029 -10.698,0.07 -17.885,0.117 l -0.249,0.002 v -0.251 c -0.003,-1.538 -0.005,-3.138 -0.008,-4.785 -0.001,-0.824 -0.001,-1.659 -0.002,-2.504 0,-0.422 0,-0.847 0,-1.274 v -0.642 -0.322 -0.161 -0.081 -0.04 -0.02 -0.01 -0.005 -0.003 c -0.057,0.055 0.494,-0.494 0.262,-0.261 9.715,0.031 18.491,0.059 24.813,0.079 l 0.184,10e-4 -0.002,0.181 c -0.041,3.031 -0.074,5.496 -0.098,7.268 -0.019,0.799 -0.033,1.441 -0.045,1.934 -0.015,0.436 -0.027,0.658 -0.04,0.645 z"
   id="path1813"
   inkscape:connector-curvature="0" />
			</g>
		</g><g
   style="opacity:0.3"
   id="g1823"
   transform="translate(7.522055,-165.67122)">
			<g
   id="g1821">
				<path
   d="m 394.467,385.784 c -0.013,-0.012 -0.025,-0.258 -0.038,-0.715 -0.011,-0.503 -0.026,-1.158 -0.045,-1.974 -0.024,-1.746 -0.057,-4.174 -0.098,-7.159 l 0.182,0.181 c -6.323,0.02 -15.099,0.048 -24.813,0.079 -0.233,0.233 0.315,-0.317 0.259,-0.259 v 0.003 0.005 0.01 0.02 0.04 0.081 0.161 0.322 0.642 c 0,0.427 0,0.852 0,1.274 -10e-4,0.845 -10e-4,1.68 -0.002,2.504 -0.003,1.647 -0.005,3.247 -0.008,4.785 l -0.249,-0.25 c 7.119,0.047 13.273,0.088 17.715,0.118 2.17,0.029 3.919,0.052 5.188,0.069 0.573,0.013 1.037,0.023 1.405,0.032 0.32,0.01 0.493,0.021 0.504,0.031 0.01,0.01 -0.142,0.021 -0.446,0.031 -0.354,0.008 -0.801,0.019 -1.352,0.032 -1.255,0.017 -2.985,0.04 -5.131,0.069 -4.485,0.03 -10.698,0.07 -17.885,0.117 l -0.249,0.002 v -0.251 c -0.003,-1.538 -0.005,-3.138 -0.008,-4.785 -0.001,-0.824 -0.001,-1.659 -0.002,-2.504 0,-0.422 0,-0.847 0,-1.274 v -0.642 -0.322 -0.161 -0.081 -0.04 -0.02 -0.01 -0.005 -0.003 c -0.057,0.055 0.494,-0.494 0.262,-0.261 9.715,0.031 18.491,0.059 24.813,0.079 l 0.184,10e-4 -0.002,0.181 c -0.041,3.031 -0.074,5.496 -0.098,7.268 -0.018,0.799 -0.033,1.441 -0.045,1.934 -0.017,0.436 -0.029,0.658 -0.041,0.645 z"
   id="path1819"
   inkscape:connector-curvature="0" />
			</g>
		</g><g
   style="opacity:0.3"
   id="g1829"
   transform="translate(7.522055,-165.67122)">
			<g
   id="g1827">
				<rect
   x="237.19299"
   y="294.745"
   width="24.815001"
   height="9.8479996"
   id="rect1825" />
			</g>
		</g><g
   style="opacity:0.3"
   id="g1835"
   transform="translate(7.522055,-165.67122)">
			<g
   id="g1833">
				<rect
   x="355.32101"
   y="273.51999"
   width="24.815001"
   height="9.8479996"
   id="rect1831" />
			</g>
		</g><g
   id="g1839"
   transform="translate(7.522055,-165.67122)">
			<rect
   x="281.94299"
   y="393.92099"
   style="fill:#263238"
   width="54.634998"
   height="54.633999"
   id="rect1837" />
		</g>

</svg>