<?xml version="1.0" encoding="UTF-8" standalone="no"?>
<svg
   xmlns:dc="http://purl.org/dc/elements/1.1/"
   xmlns:cc="http://creativecommons.org/ns#"
   xmlns:rdf="http://www.w3.org/1999/02/22-rdf-syntax-ns#"
   xmlns:svg="http://www.w3.org/2000/svg"
   xmlns="http://www.w3.org/2000/svg"
   xmlns:sodipodi="http://sodipodi.sourceforge.net/DTD/sodipodi-0.dtd"
   xmlns:inkscape="http://www.inkscape.org/namespaces/inkscape"
   version="1.1"
   width="79.680008"
   height="46.080002"
   viewBox="0 0 21.082001 12.192001"
   id="svg368"
   sodipodi:docname="pcb-brd_modified.svg"
   inkscape:version="0.92.5 (2060ec1f9f, 2020-04-08)">
  <metadata
     id="metadata374">
    <rdf:RDF>
      <cc:Work
         rdf:about="">
        <dc:format>image/svg+xml</dc:format>
        <dc:type
           rdf:resource="http://purl.org/dc/dcmitype/StillImage" />
        <dc:title>SVG Image created as pcb-brd.svg date 2024/09/20 17:26:08 </dc:title>
      </cc:Work>
    </rdf:RDF>
  </metadata>
  <defs
     id="defs372" />
  <sodipodi:namedview
     pagecolor="#ffffff"
     bordercolor="#666666"
     borderopacity="1"
     objecttolerance="10"
     gridtolerance="10"
     guidetolerance="10"
     inkscape:pageopacity="0"
     inkscape:pageshadow="2"
     inkscape:window-width="1848"
     inkscape:window-height="1016"
     id="namedview370"
     showgrid="false"
     fit-margin-top="0"
     fit-margin-left="0"
     fit-margin-right="0"
     fit-margin-bottom="0"
     units="px"
     inkscape:zoom="10.067782"
     inkscape:cx="39.840002"
     inkscape:cy="25.725627"
     inkscape:window-x="72"
     inkscape:window-y="27"
     inkscape:window-maximized="1"
     inkscape:current-layer="layer2"
     inkscape:pagecheckerboard="true" />
  <title
     id="title2">SVG Image created as pcb-brd.svg date 2024/09/20 17:26:08 </title>
  <desc
     id="desc4">Image generated by PCBNEW </desc>
  <g
     style="fill:#000000;fill-opacity:1;stroke:#000000;stroke-linecap:round;stroke-linejoin:round;stroke-opacity:1"
     id="g6"
     transform="translate(-10.885454,0.18109927)" />
  <g
     inkscape:groupmode="layer"
     id="layer2"
     inkscape:label="board-fill"
     style="display:inline"
     transform="translate(-1.375371,-1.1418173)">
    <rect
       style="display:inline;fill:#008c4a;fill-opacity:1;stroke:none;stroke-width:1.32291663;stroke-linejoin:round;stroke-miterlimit:4;stroke-dasharray:none;stroke-dashoffset:0;stroke-opacity:1"
       id="rect1737"
       width="21.082001"
       height="12.192"
       x="1.375371"
       y="1.1418173" />
  </g>
  <g
     inkscape:groupmode="layer"
     id="layer1"
     inkscape:label="exported-from-kicad"
     style="display:inline"
     transform="translate(-1.375371,-1.1418173)">
    <g
       style="fill:#d864ff;fill-opacity:0.4;stroke:none"
       id="g56"
       transform="translate(-9.482629,1.1168174)">
      <circle
         cx="29.577801"
         cy="10.0172"
         r="0.85000002"
         id="circle8" />
      <circle
         cx="29.577801"
         cy="7.4772"
         r="0.85000002"
         id="circle10" />
      <circle
         cx="29.577801"
         cy="4.9372001"
         r="0.85000002"
         id="circle12" />
      <path
         style="fill:#d864ff;fill-opacity:0.4;fill-rule:evenodd;stroke:none"
         d="m 28.7278,3.2472 v -1.7 h 1.7 v 1.7 z"
         id="path14"
         inkscape:connector-curvature="0" />
      <circle
         cx="13.2202"
         cy="10.0172"
         r="0.85000002"
         id="circle16" />
      <circle
         cx="13.2202"
         cy="7.4772"
         r="0.85000002"
         id="circle18" />
      <circle
         cx="13.2202"
         cy="4.9372001"
         r="0.85000002"
         id="circle20" />
      <path
         style="fill:#d864ff;fill-opacity:0.4;fill-rule:evenodd;stroke:none"
         d="m 12.3702,3.2472 v -1.7 h 1.7 v 1.7 z"
         id="path22"
         inkscape:connector-curvature="0" />
      <path
         style="fill:#d864ff;fill-opacity:0.4;fill-rule:evenodd;stroke:none"
         d="M 23.949,4.1422 23.9605,4.0848 23.993,4.0361 24.0416,4.0036 24.099,3.9922 h 1.6 l 0.0574,0.0114 0.0487,0.0325 0.0325,0.0487 0.0114,0.0574 v 0.3 L 25.8376,4.4996 25.8051,4.5483 25.7564,4.5808 25.699,4.5922 h -1.6 L 24.0416,4.5808 23.993,4.5483 23.9605,4.4996 23.949,4.4422 Z"
         id="path24"
         inkscape:connector-curvature="0" />
      <path
         style="fill:#d864ff;fill-opacity:0.4;fill-rule:evenodd;stroke:none"
         d="M 23.949,5.4122 23.9605,5.3548 23.993,5.3061 24.0416,5.2736 24.099,5.2622 h 1.6 l 0.0574,0.0114 0.0487,0.0325 0.0325,0.0487 0.0114,0.0574 v 0.3 L 25.8376,5.7696 25.8051,5.8183 25.7564,5.8508 25.699,5.8622 h -1.6 L 24.0416,5.8508 23.993,5.8183 23.9605,5.7696 23.949,5.7122 Z"
         id="path26"
         inkscape:connector-curvature="0" />
      <path
         style="fill:#d864ff;fill-opacity:0.4;fill-rule:evenodd;stroke:none"
         d="M 23.949,6.6822 23.9605,6.6248 23.993,6.5761 24.0416,6.5436 24.099,6.5322 h 1.6 l 0.0574,0.0114 0.0487,0.0325 0.0325,0.0487 0.0114,0.0574 v 0.3 L 25.8376,7.0396 25.8051,7.0883 25.7564,7.1208 25.699,7.1322 h -1.6 L 24.0416,7.1208 23.993,7.0883 23.9605,7.0396 23.949,6.9822 Z"
         id="path28"
         inkscape:connector-curvature="0" />
      <path
         style="fill:#d864ff;fill-opacity:0.4;fill-rule:evenodd;stroke:none"
         d="M 23.949,7.9522 23.9605,7.8948 23.993,7.8461 24.0416,7.8136 24.099,7.8022 h 1.6 l 0.0574,0.0114 0.0487,0.0325 0.0325,0.0487 0.0114,0.0574 v 0.3 L 25.8376,8.3096 25.8051,8.3583 25.7564,8.3908 25.699,8.4022 h -1.6 L 24.0416,8.3908 23.993,8.3583 23.9605,8.3096 23.949,8.2522 Z"
         id="path30"
         inkscape:connector-curvature="0" />
      <path
         style="fill:#d864ff;fill-opacity:0.4;fill-rule:evenodd;stroke:none"
         d="M 16.949,7.9522 16.9605,7.8948 16.993,7.8461 17.0416,7.8136 17.099,7.8022 h 1.6 l 0.0574,0.0114 0.0487,0.0325 0.0325,0.0487 0.0114,0.0574 v 0.3 L 18.8376,8.3096 18.8051,8.3583 18.7564,8.3908 18.699,8.4022 h -1.6 L 17.0416,8.3908 16.993,8.3583 16.9605,8.3096 16.949,8.2522 Z"
         id="path32"
         inkscape:connector-curvature="0" />
      <path
         style="fill:#d864ff;fill-opacity:0.4;fill-rule:evenodd;stroke:none"
         d="M 16.949,6.6822 16.9605,6.6248 16.993,6.5761 17.0416,6.5436 17.099,6.5322 h 1.6 l 0.0574,0.0114 0.0487,0.0325 0.0325,0.0487 0.0114,0.0574 v 0.3 L 18.8376,7.0396 18.8051,7.0883 18.7564,7.1208 18.699,7.1322 h -1.6 L 17.0416,7.1208 16.993,7.0883 16.9605,7.0396 16.949,6.9822 Z"
         id="path34"
         inkscape:connector-curvature="0" />
      <path
         style="fill:#d864ff;fill-opacity:0.4;fill-rule:evenodd;stroke:none"
         d="M 16.949,5.4122 16.9605,5.3548 16.993,5.3061 17.0416,5.2736 17.099,5.2622 h 1.6 l 0.0574,0.0114 0.0487,0.0325 0.0325,0.0487 0.0114,0.0574 v 0.3 L 18.8376,5.7696 18.8051,5.8183 18.7564,5.8508 18.699,5.8622 h -1.6 L 17.0416,5.8508 16.993,5.8183 16.9605,5.7696 16.949,5.7122 Z"
         id="path36"
         inkscape:connector-curvature="0" />
      <path
         style="fill:#d864ff;fill-opacity:0.4;fill-rule:evenodd;stroke:none"
         d="M 16.949,4.1422 16.9605,4.0848 16.993,4.0361 17.0416,4.0036 17.099,3.9922 h 1.6 l 0.0574,0.0114 0.0487,0.0325 0.0325,0.0487 0.0114,0.0574 v 0.3 L 18.8376,4.4996 18.8051,4.5483 18.7564,4.5808 18.699,4.5922 h -1.6 L 17.0416,4.5808 16.993,4.5483 16.9605,4.4996 16.949,4.4422 Z"
         id="path38"
         inkscape:connector-curvature="0" />
      <path
         style="fill:#b4a09a;fill-opacity:0.9;fill-rule:evenodd;stroke:none"
         d="M 23.949,4.1422 23.9605,4.0848 23.993,4.0361 24.0416,4.0036 24.099,3.9922 h 1.6 l 0.0574,0.0114 0.0487,0.0325 0.0325,0.0487 0.0114,0.0574 v 0.3 L 25.8376,4.4996 25.8051,4.5483 25.7564,4.5808 25.699,4.5922 h -1.6 L 24.0416,4.5808 23.993,4.5483 23.9605,4.4996 23.949,4.4422 Z"
         id="path40"
         inkscape:connector-curvature="0" />
      <path
         style="fill:#b4a09a;fill-opacity:0.9;fill-rule:evenodd;stroke:none"
         d="M 23.949,5.4122 23.9605,5.3548 23.993,5.3061 24.0416,5.2736 24.099,5.2622 h 1.6 l 0.0574,0.0114 0.0487,0.0325 0.0325,0.0487 0.0114,0.0574 v 0.3 L 25.8376,5.7696 25.8051,5.8183 25.7564,5.8508 25.699,5.8622 h -1.6 L 24.0416,5.8508 23.993,5.8183 23.9605,5.7696 23.949,5.7122 Z"
         id="path42"
         inkscape:connector-curvature="0" />
      <path
         style="fill:#b4a09a;fill-opacity:0.9;fill-rule:evenodd;stroke:none"
         d="M 23.949,6.6822 23.9605,6.6248 23.993,6.5761 24.0416,6.5436 24.099,6.5322 h 1.6 l 0.0574,0.0114 0.0487,0.0325 0.0325,0.0487 0.0114,0.0574 v 0.3 L 25.8376,7.0396 25.8051,7.0883 25.7564,7.1208 25.699,7.1322 h -1.6 L 24.0416,7.1208 23.993,7.0883 23.9605,7.0396 23.949,6.9822 Z"
         id="path44"
         inkscape:connector-curvature="0" />
      <path
         style="fill:#b4a09a;fill-opacity:0.9;fill-rule:evenodd;stroke:none"
         d="M 23.949,7.9522 23.9605,7.8948 23.993,7.8461 24.0416,7.8136 24.099,7.8022 h 1.6 l 0.0574,0.0114 0.0487,0.0325 0.0325,0.0487 0.0114,0.0574 v 0.3 L 25.8376,8.3096 25.8051,8.3583 25.7564,8.3908 25.699,8.4022 h -1.6 L 24.0416,8.3908 23.993,8.3583 23.9605,8.3096 23.949,8.2522 Z"
         id="path46"
         inkscape:connector-curvature="0" />
      <path
         style="fill:#b4a09a;fill-opacity:0.9;fill-rule:evenodd;stroke:none"
         d="M 16.949,7.9522 16.9605,7.8948 16.993,7.8461 17.0416,7.8136 17.099,7.8022 h 1.6 l 0.0574,0.0114 0.0487,0.0325 0.0325,0.0487 0.0114,0.0574 v 0.3 L 18.8376,8.3096 18.8051,8.3583 18.7564,8.3908 18.699,8.4022 h -1.6 L 17.0416,8.3908 16.993,8.3583 16.9605,8.3096 16.949,8.2522 Z"
         id="path48"
         inkscape:connector-curvature="0" />
      <path
         style="fill:#b4a09a;fill-opacity:0.9;fill-rule:evenodd;stroke:none"
         d="M 16.949,6.6822 16.9605,6.6248 16.993,6.5761 17.0416,6.5436 17.099,6.5322 h 1.6 l 0.0574,0.0114 0.0487,0.0325 0.0325,0.0487 0.0114,0.0574 v 0.3 L 18.8376,7.0396 18.8051,7.0883 18.7564,7.1208 18.699,7.1322 h -1.6 L 17.0416,7.1208 16.993,7.0883 16.9605,7.0396 16.949,6.9822 Z"
         id="path50"
         inkscape:connector-curvature="0" />
      <path
         style="fill:#b4a09a;fill-opacity:0.9;fill-rule:evenodd;stroke:none"
         d="M 16.949,5.4122 16.9605,5.3548 16.993,5.3061 17.0416,5.2736 17.099,5.2622 h 1.6 l 0.0574,0.0114 0.0487,0.0325 0.0325,0.0487 0.0114,0.0574 v 0.3 L 18.8376,5.7696 18.8051,5.8183 18.7564,5.8508 18.699,5.8622 h -1.6 L 17.0416,5.8508 16.993,5.8183 16.9605,5.7696 16.949,5.7122 Z"
         id="path52"
         inkscape:connector-curvature="0" />
      <path
         style="fill:#b4a09a;fill-opacity:0.9;fill-rule:evenodd;stroke:none"
         d="M 16.949,4.1422 16.9605,4.0848 16.993,4.0361 17.0416,4.0036 17.099,3.9922 h 1.6 l 0.0574,0.0114 0.0487,0.0325 0.0325,0.0487 0.0114,0.0574 v 0.3 L 18.8376,4.4996 18.8051,4.5483 18.7564,4.5808 18.699,4.5922 h -1.6 L 17.0416,4.5808 16.993,4.5483 16.9605,4.4996 16.949,4.4422 Z"
         id="path54"
         inkscape:connector-curvature="0" />
    </g>
    <g
       style="fill:none;stroke:#f2eda1;stroke-width:0.15000001;stroke-linecap:round;stroke-linejoin:round;stroke-opacity:1"
       id="g154"
       transform="translate(-9.482629,1.1168174)">
      <text
         x="26.606001"
         y="1.795"
         textLength="1.9643"
         font-size="1.3333"
         lengthAdjust="spacingAndGlyphs"
         id="text58"
         style="font-size:1.33329999px;text-anchor:middle;opacity:0;stroke-opacity:0">J2</text>
      <g
         class="stroked-text"
         id="g92">
        <desc
           id="desc60">J2</desc>
        <path
           d="M 26.2727,0.7498 V 1.4641"
           id="path62"
           inkscape:connector-curvature="0" />
        <path
           d="M 26.2727,1.4641 26.2251,1.607"
           id="path64"
           inkscape:connector-curvature="0" />
        <path
           d="M 26.2251,1.607 26.1298,1.7022"
           id="path66"
           inkscape:connector-curvature="0" />
        <path
           d="M 26.1298,1.7022 25.987,1.7498"
           id="path68"
           inkscape:connector-curvature="0" />
        <path
           d="M 25.987,1.7498 H 25.8918"
           id="path70"
           inkscape:connector-curvature="0" />
        <path
           d="M 26.7013,0.8451 26.7489,0.7974"
           id="path72"
           inkscape:connector-curvature="0" />
        <path
           d="M 26.7489,0.7974 26.8441,0.7498"
           id="path74"
           inkscape:connector-curvature="0" />
        <path
           d="m 26.8441,0.7498 h 0.2381"
           id="path76"
           inkscape:connector-curvature="0" />
        <path
           d="m 27.0822,0.7498 0.0953,0.0476"
           id="path78"
           inkscape:connector-curvature="0" />
        <path
           d="m 27.1775,0.7974 0.0476,0.0477"
           id="path80"
           inkscape:connector-curvature="0" />
        <path
           d="m 27.2251,0.8451 0.0476,0.0952"
           id="path82"
           inkscape:connector-curvature="0" />
        <path
           d="M 27.2727,0.9403 V 1.0355"
           id="path84"
           inkscape:connector-curvature="0" />
        <path
           d="M 27.2727,1.0355 27.2251,1.1784"
           id="path86"
           inkscape:connector-curvature="0" />
        <path
           d="M 27.2251,1.1784 26.6537,1.7498"
           id="path88"
           inkscape:connector-curvature="0" />
        <path
           d="m 26.6537,1.7498 h 0.619"
           id="path90"
           inkscape:connector-curvature="0" />
      </g>
      <text
         x="15.938"
         y="1.795"
         textLength="1.9643"
         font-size="1.3333"
         lengthAdjust="spacingAndGlyphs"
         id="text94"
         style="font-size:1.33329999px;text-anchor:middle;opacity:0;stroke-opacity:0">J1</text>
      <g
         class="stroked-text"
         id="g118">
        <desc
           id="desc96">J1</desc>
        <path
           d="M 15.6047,0.7498 V 1.4641"
           id="path98"
           inkscape:connector-curvature="0" />
        <path
           d="M 15.6047,1.4641 15.5571,1.607"
           id="path100"
           inkscape:connector-curvature="0" />
        <path
           d="M 15.5571,1.607 15.4618,1.7022"
           id="path102"
           inkscape:connector-curvature="0" />
        <path
           d="M 15.4618,1.7022 15.319,1.7498"
           id="path104"
           inkscape:connector-curvature="0" />
        <path
           d="M 15.319,1.7498 H 15.2238"
           id="path106"
           inkscape:connector-curvature="0" />
        <path
           d="M 16.6047,1.7498 H 16.0333"
           id="path108"
           inkscape:connector-curvature="0" />
        <path
           d="m 16.319,1.7498 v -1"
           id="path110"
           inkscape:connector-curvature="0" />
        <path
           d="M 16.319,0.7498 16.2238,0.8927"
           id="path112"
           inkscape:connector-curvature="0" />
        <path
           d="M 16.2238,0.8927 16.1285,0.9879"
           id="path114"
           inkscape:connector-curvature="0" />
        <path
           d="M 16.1285,0.9879 16.0333,1.0355"
           id="path116"
           inkscape:connector-curvature="0" />
      </g>
      <text
         x="21.399"
         y="2.6472001"
         textLength="2.25"
         font-size="1.3333"
         lengthAdjust="spacingAndGlyphs"
         id="text120"
         style="font-size:1.33329999px;text-anchor:middle;opacity:0;stroke-opacity:0">U1</text>
      <g
         class="stroked-text"
         id="g152">
        <desc
           id="desc122">U1</desc>
        <path
           d="M 20.6371,1.602 V 2.4115"
           id="path124"
           inkscape:connector-curvature="0" />
        <path
           d="m 20.6371,2.4115 0.0477,0.0953"
           id="path126"
           inkscape:connector-curvature="0" />
        <path
           d="m 20.6848,2.5068 0.0476,0.0476"
           id="path128"
           inkscape:connector-curvature="0" />
        <path
           d="M 20.7324,2.5544 20.8276,2.602"
           id="path130"
           inkscape:connector-curvature="0" />
        <path
           d="m 20.8276,2.602 h 0.1905"
           id="path132"
           inkscape:connector-curvature="0" />
        <path
           d="M 21.0181,2.602 21.1133,2.5544"
           id="path134"
           inkscape:connector-curvature="0" />
        <path
           d="M 21.1133,2.5544 21.1609,2.5068"
           id="path136"
           inkscape:connector-curvature="0" />
        <path
           d="M 21.1609,2.5068 21.2086,2.4115"
           id="path138"
           inkscape:connector-curvature="0" />
        <path
           d="M 21.2086,2.4115 V 1.602"
           id="path140"
           inkscape:connector-curvature="0" />
        <path
           d="M 22.2086,2.602 H 21.6371"
           id="path142"
           inkscape:connector-curvature="0" />
        <path
           d="m 21.9228,2.602 v -1"
           id="path144"
           inkscape:connector-curvature="0" />
        <path
           d="M 21.9228,1.602 21.8276,1.7449"
           id="path146"
           inkscape:connector-curvature="0" />
        <path
           d="M 21.8276,1.7449 21.7324,1.8401"
           id="path148"
           inkscape:connector-curvature="0" />
        <path
           d="M 21.7324,1.8401 21.6371,1.8877"
           id="path150"
           inkscape:connector-curvature="0" />
      </g>
    </g>
    <g
       style="fill:none;stroke:#f2eda1;stroke-width:0.12;stroke-linecap:round;stroke-linejoin:round;stroke-opacity:1"
       id="g182"
       transform="translate(-9.482629,1.1168174)">
      <path
         d="m 30.9078,3.6672 v 7.68"
         id="path156"
         inkscape:connector-curvature="0" />
      <path
         d="m 28.2478,11.3472 h 2.66"
         id="path158"
         inkscape:connector-curvature="0" />
      <path
         d="m 28.2478,3.6672 h 2.66"
         id="path160"
         inkscape:connector-curvature="0" />
      <path
         d="m 28.2478,3.6672 v 7.68"
         id="path162"
         inkscape:connector-curvature="0" />
      <path
         d="m 28.2478,2.3972 v -1.33"
         id="path164"
         inkscape:connector-curvature="0" />
      <path
         d="m 28.2478,1.0672 h 1.33"
         id="path166"
         inkscape:connector-curvature="0" />
      <path
         d="m 14.5502,3.6672 v 7.68"
         id="path168"
         inkscape:connector-curvature="0" />
      <path
         d="m 11.8902,11.3472 h 2.66"
         id="path170"
         inkscape:connector-curvature="0" />
      <path
         d="m 11.8902,3.6672 h 2.66"
         id="path172"
         inkscape:connector-curvature="0" />
      <path
         d="m 11.8902,3.6672 v 7.68"
         id="path174"
         inkscape:connector-curvature="0" />
      <path
         d="m 11.8902,2.3972 v -1.33"
         id="path176"
         inkscape:connector-curvature="0" />
      <path
         d="m 11.8902,1.0672 h 1.33"
         id="path178"
         inkscape:connector-curvature="0" />
      <path
         style="fill:#f2eda1;fill-opacity:1;fill-rule:evenodd;stroke:#f2eda1;stroke-width:0.12;stroke-linecap:round;stroke-linejoin:round;stroke-opacity:1"
         d="m 17.849,3.7322 -0.24,-0.33 h 0.48 z"
         id="path180"
         inkscape:connector-curvature="0" />
    </g>
    <g
       style="fill:none;stroke:#f2eda1;stroke-width:0.12;stroke-linecap:round;stroke-linejoin:round;stroke-opacity:1"
       id="g200"
       transform="translate(-9.482629,1.1168174)">
      <path
         d="M 24.159,9.4072 V 8.6622"
         id="path184"
         inkscape:connector-curvature="0" />
      <path
         d="m 24.159,2.9872 v 0.745"
         id="path186"
         inkscape:connector-curvature="0" />
      <path
         d="m 21.399,9.4072 h 2.76"
         id="path188"
         inkscape:connector-curvature="0" />
      <path
         d="m 21.399,9.4072 h -2.76"
         id="path190"
         inkscape:connector-curvature="0" />
      <path
         d="m 21.399,2.9872 h 2.76"
         id="path192"
         inkscape:connector-curvature="0" />
      <path
         d="m 21.399,2.9872 h -2.76"
         id="path194"
         inkscape:connector-curvature="0" />
      <path
         d="M 18.639,9.4072 V 8.6622"
         id="path196"
         inkscape:connector-curvature="0" />
      <path
         d="m 18.639,2.9872 v 0.745"
         id="path198"
         inkscape:connector-curvature="0" />
    </g>
    <g
       style="fill:#f2eda1;fill-opacity:1;stroke:none"
       id="g204"
       transform="translate(-9.482629,1.1168174)">
      <circle
         cx="29.577801"
         cy="10.0172"
         r="0.5"
         id="circle202" />
    </g>
    <g
       style="fill:#f2eda1;fill-opacity:1;stroke:none"
       id="g208"
       transform="translate(-9.482629,1.1168174)">
      <circle
         cx="29.577801"
         cy="7.4772"
         r="0.5"
         id="circle206" />
    </g>
    <g
       style="fill:#f2eda1;fill-opacity:1;stroke:none"
       id="g212"
       transform="translate(-9.482629,1.1168174)">
      <circle
         cx="29.577801"
         cy="4.9372001"
         r="0.5"
         id="circle210" />
    </g>
    <g
       style="fill:#f2eda1;fill-opacity:1;stroke:none"
       id="g216"
       transform="translate(-9.482629,1.1168174)">
      <circle
         cx="29.577801"
         cy="2.3972001"
         r="0.5"
         id="circle214" />
    </g>
    <g
       style="fill:#f2eda1;fill-opacity:1;stroke:none"
       id="g220"
       transform="translate(-9.482629,1.1168174)">
      <circle
         cx="13.2202"
         cy="10.0172"
         r="0.5"
         id="circle218" />
    </g>
    <g
       style="fill:#f2eda1;fill-opacity:1;stroke:none"
       id="g224"
       transform="translate(-9.482629,1.1168174)">
      <circle
         cx="13.2202"
         cy="7.4772"
         r="0.5"
         id="circle222" />
    </g>
    <g
       style="fill:#f2eda1;fill-opacity:1;stroke:none"
       id="g228"
       transform="translate(-9.482629,1.1168174)">
      <circle
         cx="13.2202"
         cy="4.9372001"
         r="0.5"
         id="circle226" />
    </g>
    <g
       style="fill:#d0d2cd;fill-opacity:1;stroke:none"
       id="g238"
       transform="translate(-9.482629,1.1168174)">
      <circle
         cx="29.577801"
         cy="10.0172"
         r="0.5"
         id="circle236" />
    </g>
    <g
       style="fill:#d0d2cd;fill-opacity:1;stroke:none"
       id="g242"
       transform="translate(-9.482629,1.1168174)">
      <circle
         cx="29.577801"
         cy="7.4772"
         r="0.5"
         id="circle240" />
    </g>
    <g
       style="fill:#d0d2cd;fill-opacity:1;stroke:none"
       id="g246"
       transform="translate(-9.482629,1.1168174)">
      <circle
         cx="29.577801"
         cy="4.9372001"
         r="0.5"
         id="circle244" />
    </g>
    <g
       style="fill:#d0d2cd;fill-opacity:1;stroke:none"
       id="g250"
       transform="translate(-9.482629,1.1168174)">
      <circle
         cx="29.577801"
         cy="2.3972001"
         r="0.5"
         id="circle248" />
    </g>
    <g
       style="fill:#d0d2cd;fill-opacity:1;stroke:none"
       id="g254"
       transform="translate(-9.482629,1.1168174)">
      <circle
         cx="13.2202"
         cy="10.0172"
         r="0.5"
         id="circle252" />
    </g>
    <g
       style="fill:#d0d2cd;fill-opacity:1;stroke:none"
       id="g258"
       transform="translate(-9.482629,1.1168174)">
      <circle
         cx="13.2202"
         cy="7.4772"
         r="0.5"
         id="circle256" />
    </g>
    <g
       style="fill:#d0d2cd;fill-opacity:1;stroke:none"
       id="g262"
       transform="translate(-9.482629,1.1168174)">
      <circle
         cx="13.2202"
         cy="4.9372001"
         r="0.5"
         id="circle260" />
    </g>
    <g
       style="fill:#d0d2cd;fill-opacity:1;stroke:none"
       id="g266"
       transform="translate(-9.482629,1.1168174)">
      <circle
         cx="13.2202"
         cy="2.3972001"
         r="0.5"
         id="circle264" />
    </g>
    <g
       style="fill:none;stroke:#355e3b;stroke-width:0.5;stroke-linecap:round;stroke-linejoin:round;stroke-opacity:1"
       id="g334"
       transform="translate(-9.482629,1.1168174)">
      <path
         d="M 17.899,5.5622 H 13.8452"
         id="path302"
         inkscape:connector-curvature="0"
         style="stroke:#355e3b;stroke-opacity:1" />
      <path
         d="m 13.8452,5.5622 -0.625,-0.625"
         id="path304"
         inkscape:connector-curvature="0"
         style="stroke:#355e3b;stroke-opacity:1" />
      <path
         d="m 24.899,6.8322 h 4.0338"
         id="path306"
         inkscape:connector-curvature="0"
         style="stroke:#355e3b;stroke-opacity:1" />
      <path
         d="m 28.9328,6.8322 0.645,0.645"
         id="path308"
         inkscape:connector-curvature="0"
         style="stroke:#355e3b;stroke-opacity:1" />
      <path
         d="m 24.899,5.5622 h 4.0538"
         id="path310"
         inkscape:connector-curvature="0"
         style="stroke:#355e3b;stroke-opacity:1" />
      <path
         d="m 28.9528,5.5622 0.625,-0.625"
         id="path312"
         inkscape:connector-curvature="0"
         style="stroke:#355e3b;stroke-opacity:1" />
      <path
         d="m 24.899,8.1022 1.915,1.915"
         id="path314"
         inkscape:connector-curvature="0"
         style="stroke:#355e3b;stroke-opacity:1" />
      <path
         d="m 26.814,10.0172 h 2.7638"
         id="path316"
         inkscape:connector-curvature="0"
         style="stroke:#355e3b;stroke-opacity:1" />
      <path
         d="m 24.899,4.2922 1.895,-1.895"
         id="path318"
         inkscape:connector-curvature="0"
         style="stroke:#355e3b;stroke-opacity:1" />
      <path
         d="m 26.794,2.3972 h 2.7838"
         id="path320"
         inkscape:connector-curvature="0"
         style="stroke:#355e3b;stroke-opacity:1" />
      <path
         d="m 17.899,8.1022 -1.915,1.915"
         id="path322"
         inkscape:connector-curvature="0"
         style="stroke:#355e3b;stroke-opacity:1" />
      <path
         d="M 15.984,10.0172 H 13.2202"
         id="path324"
         inkscape:connector-curvature="0"
         style="stroke:#355e3b;stroke-opacity:1" />
      <path
         d="M 17.899,4.2922 16.004,2.3972"
         id="path326"
         inkscape:connector-curvature="0"
         style="stroke:#355e3b;stroke-opacity:1" />
      <path
         d="M 16.004,2.3972 H 13.2202"
         id="path328"
         inkscape:connector-curvature="0"
         style="stroke:#355e3b;stroke-opacity:1" />
      <path
         d="m 13.8652,6.8322 -0.645,0.645"
         id="path330"
         inkscape:connector-curvature="0"
         style="stroke:#355e3b;stroke-opacity:1" />
      <path
         d="M 17.899,6.8322 H 13.8652"
         id="path332"
         inkscape:connector-curvature="0"
         style="stroke:#355e3b;stroke-opacity:1" />
    </g>
    <g
       style="fill:#ffd700;fill-opacity:1;stroke:none"
       id="g300"
       transform="translate(-9.482629,1.1168174)">
      <circle
         cx="29.577801"
         cy="10.0172"
         r="0.85000002"
         id="circle268"
         style="fill:#ffd700;fill-opacity:1" />
      <circle
         cx="29.577801"
         cy="7.4772"
         r="0.85000002"
         id="circle270"
         style="fill:#ffd700;fill-opacity:1" />
      <circle
         cx="29.577801"
         cy="4.9372001"
         r="0.85000002"
         id="circle272"
         style="fill:#ffd700;fill-opacity:1" />
      <path
         style="fill:#ffd700;fill-opacity:1;fill-rule:evenodd;stroke:none"
         d="m 28.7278,3.2472 v -1.7 h 1.7 v 1.7 z"
         id="path274"
         inkscape:connector-curvature="0" />
      <circle
         cx="13.2202"
         cy="10.0172"
         r="0.85000002"
         id="circle276"
         style="fill:#ffd700;fill-opacity:1" />
      <circle
         cx="13.2202"
         cy="7.4772"
         r="0.85000002"
         id="circle278"
         style="fill:#ffd700;fill-opacity:1" />
      <circle
         cx="13.2202"
         cy="4.9372001"
         r="0.85000002"
         id="circle280"
         style="fill:#ffd700;fill-opacity:1" />
      <path
         style="fill:#ffd700;fill-opacity:1;fill-rule:evenodd;stroke:none"
         d="m 12.3702,3.2472 v -1.7 h 1.7 v 1.7 z"
         id="path282"
         inkscape:connector-curvature="0" />
      <path
         style="fill:#ffd700;fill-opacity:1;fill-rule:evenodd;stroke:none"
         d="M 23.949,4.1422 23.9605,4.0848 23.993,4.0361 24.0416,4.0036 24.099,3.9922 h 1.6 l 0.0574,0.0114 0.0487,0.0325 0.0325,0.0487 0.0114,0.0574 v 0.3 L 25.8376,4.4996 25.8051,4.5483 25.7564,4.5808 25.699,4.5922 h -1.6 L 24.0416,4.5808 23.993,4.5483 23.9605,4.4996 23.949,4.4422 Z"
         id="path284"
         inkscape:connector-curvature="0" />
      <path
         style="fill:#ffd700;fill-opacity:1;fill-rule:evenodd;stroke:none"
         d="M 23.949,5.4122 23.9605,5.3548 23.993,5.3061 24.0416,5.2736 24.099,5.2622 h 1.6 l 0.0574,0.0114 0.0487,0.0325 0.0325,0.0487 0.0114,0.0574 v 0.3 L 25.8376,5.7696 25.8051,5.8183 25.7564,5.8508 25.699,5.8622 h -1.6 L 24.0416,5.8508 23.993,5.8183 23.9605,5.7696 23.949,5.7122 Z"
         id="path286"
         inkscape:connector-curvature="0" />
      <path
         style="fill:#ffd700;fill-opacity:1;fill-rule:evenodd;stroke:none"
         d="M 23.949,6.6822 23.9605,6.6248 23.993,6.5761 24.0416,6.5436 24.099,6.5322 h 1.6 l 0.0574,0.0114 0.0487,0.0325 0.0325,0.0487 0.0114,0.0574 v 0.3 L 25.8376,7.0396 25.8051,7.0883 25.7564,7.1208 25.699,7.1322 h -1.6 L 24.0416,7.1208 23.993,7.0883 23.9605,7.0396 23.949,6.9822 Z"
         id="path288"
         inkscape:connector-curvature="0" />
      <path
         style="fill:#ffd700;fill-opacity:1;fill-rule:evenodd;stroke:none"
         d="M 23.949,7.9522 23.9605,7.8948 23.993,7.8461 24.0416,7.8136 24.099,7.8022 h 1.6 l 0.0574,0.0114 0.0487,0.0325 0.0325,0.0487 0.0114,0.0574 v 0.3 L 25.8376,8.3096 25.8051,8.3583 25.7564,8.3908 25.699,8.4022 h -1.6 L 24.0416,8.3908 23.993,8.3583 23.9605,8.3096 23.949,8.2522 Z"
         id="path290"
         inkscape:connector-curvature="0" />
      <path
         style="fill:#ffd700;fill-opacity:1;fill-rule:evenodd;stroke:none"
         d="M 16.949,7.9522 16.9605,7.8948 16.993,7.8461 17.0416,7.8136 17.099,7.8022 h 1.6 l 0.0574,0.0114 0.0487,0.0325 0.0325,0.0487 0.0114,0.0574 v 0.3 L 18.8376,8.3096 18.8051,8.3583 18.7564,8.3908 18.699,8.4022 h -1.6 L 17.0416,8.3908 16.993,8.3583 16.9605,8.3096 16.949,8.2522 Z"
         id="path292"
         inkscape:connector-curvature="0" />
      <path
         style="fill:#ffd700;fill-opacity:1;fill-rule:evenodd;stroke:none"
         d="M 16.949,6.6822 16.9605,6.6248 16.993,6.5761 17.0416,6.5436 17.099,6.5322 h 1.6 l 0.0574,0.0114 0.0487,0.0325 0.0325,0.0487 0.0114,0.0574 v 0.3 L 18.8376,7.0396 18.8051,7.0883 18.7564,7.1208 18.699,7.1322 h -1.6 L 17.0416,7.1208 16.993,7.0883 16.9605,7.0396 16.949,6.9822 Z"
         id="path294"
         inkscape:connector-curvature="0" />
      <path
         style="fill:#ffd700;fill-opacity:1;fill-rule:evenodd;stroke:none"
         d="M 16.949,5.4122 16.9605,5.3548 16.993,5.3061 17.0416,5.2736 17.099,5.2622 h 1.6 l 0.0574,0.0114 0.0487,0.0325 0.0325,0.0487 0.0114,0.0574 v 0.3 L 18.8376,5.7696 18.8051,5.8183 18.7564,5.8508 18.699,5.8622 h -1.6 L 17.0416,5.8508 16.993,5.8183 16.9605,5.7696 16.949,5.7122 Z"
         id="path296"
         inkscape:connector-curvature="0" />
      <path
         style="fill:#ffd700;fill-opacity:1;fill-rule:evenodd;stroke:none"
         d="M 16.949,4.1422 16.9605,4.0848 16.993,4.0361 17.0416,4.0036 17.099,3.9922 h 1.6 l 0.0574,0.0114 0.0487,0.0325 0.0325,0.0487 0.0114,0.0574 v 0.3 L 18.8376,4.4996 18.8051,4.5483 18.7564,4.5808 18.699,4.5922 h -1.6 L 17.0416,4.5808 16.993,4.5483 16.9605,4.4996 16.949,4.4422 Z"
         id="path298"
         inkscape:connector-curvature="0" />
    </g>
    <g
       style="fill:#ffffff;fill-opacity:1;stroke:none"
       id="g338"
       transform="translate(-9.482629,1.1168174)">
      <circle
         cx="29.577801"
         cy="10.0172"
         r="0.5"
         id="circle336" />
    </g>
    <g
       style="fill:#ffffff;fill-opacity:1;stroke:none"
       id="g342"
       transform="translate(-9.482629,1.1168174)">
      <circle
         cx="29.577801"
         cy="7.4772"
         r="0.5"
         id="circle340" />
    </g>
    <g
       style="fill:#ffffff;fill-opacity:1;stroke:none"
       id="g346"
       transform="translate(-9.482629,1.1168174)">
      <circle
         cx="29.577801"
         cy="4.9372001"
         r="0.5"
         id="circle344" />
    </g>
    <g
       style="fill:#ffffff;fill-opacity:1;stroke:none"
       id="g350"
       transform="translate(-9.482629,1.1168174)">
      <circle
         cx="29.577801"
         cy="2.3972001"
         r="0.5"
         id="circle348" />
    </g>
    <g
       style="fill:#ffffff;fill-opacity:1;stroke:none"
       id="g354"
       transform="translate(-9.482629,1.1168174)">
      <circle
         cx="13.2202"
         cy="10.0172"
         r="0.5"
         id="circle352" />
    </g>
    <g
       style="fill:#ffffff;fill-opacity:1;stroke:none"
       id="g358"
       transform="translate(-9.482629,1.1168174)">
      <circle
         cx="13.2202"
         cy="7.4772"
         r="0.5"
         id="circle356" />
    </g>
    <g
       style="fill:#ffffff;fill-opacity:1;stroke:none"
       id="g362"
       transform="translate(-9.482629,1.1168174)">
      <circle
         cx="13.2202"
         cy="4.9372001"
         r="0.5"
         id="circle360" />
    </g>
    <g
       style="fill:#ffffff;fill-opacity:1;stroke:none"
       id="g366"
       transform="translate(-9.482629,1.1168174)">
      <circle
         cx="13.2202"
         cy="2.3972001"
         r="0.5"
         id="circle364" />
    </g>
  </g>
</svg>
