<?xml version="1.0" encoding="UTF-8" standalone="no"?>
<svg
   xmlns:dc="http://purl.org/dc/elements/1.1/"
   xmlns:cc="http://creativecommons.org/ns#"
   xmlns:rdf="http://www.w3.org/1999/02/22-rdf-syntax-ns#"
   xmlns:svg="http://www.w3.org/2000/svg"
   xmlns="http://www.w3.org/2000/svg"
   xmlns:sodipodi="http://sodipodi.sourceforge.net/DTD/sodipodi-0.dtd"
   xmlns:inkscape="http://www.inkscape.org/namespaces/inkscape"
   id="Layer_2"
   data-name="Layer 2"
   viewBox="0 0 264.10999 264.10999"
   version="1.1"
   sodipodi:docname="atopile-emblem.svg"
   width="264.10999"
   height="264.10999"
   inkscape:version="0.92.5 (2060ec1f9f, 2020-04-08)">
  <metadata
     id="metadata22">
    <rdf:RDF>
      <cc:Work
         rdf:about="">
        <dc:format>image/svg+xml</dc:format>
        <dc:type
           rdf:resource="http://purl.org/dc/dcmitype/StillImage" />
        <dc:title></dc:title>
      </cc:Work>
    </rdf:RDF>
  </metadata>
  <sodipodi:namedview
     pagecolor="#ffffff"
     bordercolor="#666666"
     borderopacity="1"
     objecttolerance="10"
     gridtolerance="10"
     guidetolerance="10"
     inkscape:pageopacity="0"
     inkscape:pageshadow="2"
     inkscape:window-width="1743"
     inkscape:window-height="949"
     id="namedview20"
     showgrid="false"
     fit-margin-top="0"
     fit-margin-left="0"
     fit-margin-right="0"
     fit-margin-bottom="0"
     inkscape:zoom="2.7608782"
     inkscape:cx="132.06"
     inkscape:cy="132.05"
     inkscape:window-x="72"
     inkscape:window-y="27"
     inkscape:window-maximized="0"
     inkscape:current-layer="Layer_2"
     scale-x="0.9"
     inkscape:pagecheckerboard="true" />
  <defs
     id="defs4">
    <style
       id="style2">
      .cls-1 {
        fill: #f95015;
        stroke-width: 0px;
      }
    </style>
  </defs>
  <g
     id="_Слой_1"
     data-name="Слой 1">
    <g
       id="g16">
      <rect
         class="cls-1"
         x="0"
         y="229.39"
         width="57.389999"
         height="34.73"
         rx="2.5"
         ry="2.5"
         transform="rotate(180,28.695,246.75)"
         id="rect6"
         style="fill:#f95015;stroke-width:0px" />
      <path
         class="cls-1"
         d="M 168.54,26.23 V 8.5 c 0,-4.7 3.81,-8.5 8.5,-8.5 h 78.57 c 4.7,0 8.5,3.81 8.5,8.5 v 88.27 c 0,4.7 -3.81,8.5 -8.5,8.5 h -17.73 c -4.7,0 -8.5,-3.81 -8.5,-8.5 V 43.23 c 0,-4.7 -3.81,-8.5 -8.5,-8.5 h -43.84 c -4.7,0 -8.5,-3.81 -8.5,-8.5 z"
         id="path8"
         inkscape:connector-curvature="0"
         style="fill:#f95015;stroke-width:0px" />
      <path
         class="cls-1"
         d="m 0,147.08 v -17.73 c 0,-4.7 3.81,-8.5 8.5,-8.5 h 40.38 c 4.7,0 8.5,3.81 8.5,8.5 v 37.26 c 0,4.7 3.81,8.5 8.5,8.5 H 95.7 c 4.7,0 8.5,3.81 8.5,8.5 v 37.26 c 0,4.7 3.81,8.5 8.5,8.5 h 108.17 c 4.7,0 8.5,-3.81 8.5,-8.5 v -56.8 c 0,-4.7 -3.81,-8.5 -8.5,-8.5 h -45.95 c -4.7,0 -8.5,-3.81 -8.5,-8.5 v -43.42 c 0,-4.7 -3.81,-8.5 -8.5,-8.5 h -29.67 c -4.7,0 -8.5,-3.81 -8.5,-8.5 V 43.22 c 0,-4.7 -3.81,-8.5 -8.5,-8.5 H 87.2 c -4.7,0 -8.5,-3.81 -8.5,-8.5 V 8.5 C 78.7,3.8 82.51,0 87.2,0 h 57.25 c 4.7,0 8.5,3.81 8.5,8.5 v 43.42 c 0,4.7 3.81,8.5 8.5,8.5 h 29.67 c 4.7,0 8.5,3.81 8.5,8.5 v 43.42 c 0,4.7 3.81,8.5 8.5,8.5 h 47.48 c 4.7,0 8.5,3.81 8.5,8.5 v 126.27 c 0,4.7 -3.81,8.5 -8.5,8.5 H 78.95 c -4.7,0 -8.5,-3.81 -8.5,-8.5 v -37.26 c 0,-4.7 -3.81,-8.5 -8.5,-8.5 H 32.12 c -4.7,0 -8.5,-3.81 -8.5,-8.5 v -37.26 c 0,-4.7 -3.81,-8.5 -8.5,-8.5 H 8.51 c -4.7,0 -8.5,-3.81 -8.5,-8.5 z"
         id="path10"
         inkscape:connector-curvature="0"
         style="fill:#f95015;stroke-width:0px" />
      <path
         class="cls-1"
         d="M 25.08,86.66 V 68.93 c 0,-4.7 3.81,-8.5 8.5,-8.5 h 61.84 c 4.7,0 8.5,3.81 8.5,8.5 v 43.42 c 0,4.7 3.81,8.5 8.5,8.5 h 32.03 c 4.7,0 8.5,3.81 8.5,8.5 v 37.26 c 0,4.7 3.81,8.5 8.5,8.5 h 39.69 c 4.7,0 8.5,3.81 8.5,8.5 v 17.73 c 0,4.7 -3.81,8.5 -8.5,8.5 h -73.46 c -4.7,0 -8.5,-3.81 -8.5,-8.5 v -37.26 c 0,-4.7 -3.81,-8.5 -8.5,-8.5 H 79.23 c -4.7,0 -8.5,-3.81 -8.5,-8.5 v -43.42 c 0,-4.7 -3.81,-8.5 -8.5,-8.5 H 33.58 c -4.7,0 -8.5,-3.81 -8.5,-8.5 z"
         id="path12"
         inkscape:connector-curvature="0"
         style="fill:#f95015;stroke-width:0px" />
      <rect
         class="cls-1"
         x="25.08"
         y="0"
         width="34.73"
         height="34.73"
         rx="2.5"
         ry="2.5"
         transform="rotate(180,42.45,17.365)"
         id="rect14"
         style="fill:#f95015;stroke-width:0px" />
    </g>
  </g>
</svg>
